<svg width="16" height="20" viewBox="0 0 16 20" fill="none" xmlns="http://www.w3.org/2000/svg">
<path d="M12.3831 0.65153C9.48771 0.166124 6.5161 0.166124 3.6207 0.65153C2.56291 0.828865 1.72051 1.64094 1.50841 2.69388C0.536772 7.51761 0.483757 12.4813 1.35215 17.3247L1.7057 19.2966C1.81472 19.9047 2.55598 20.1477 3.00384 19.7222L7.27141 15.668C7.68077 15.2791 8.32304 15.2791 8.7324 15.668L13 19.7222C13.4478 20.1477 14.1891 19.9047 14.2981 19.2966L14.6517 17.3247C15.52 12.4813 15.467 7.51761 14.4954 2.69388C14.2833 1.64094 13.4409 0.828865 12.3831 0.65153Z" fill="#6C5FBC"/>
</svg>
